<svg width="862" height="828" viewBox="0 0 862 828" fill="none" xmlns="http://www.w3.org/2000/svg">
<path d="M509.359 332.089V332.214C509.359 332.167 509.359 332.141 509.359 332.089ZM590.442 383.157C587.583 383.157 584.724 383.12 581.849 383.047C555.666 382.245 530.906 377.938 512.13 370.854C480.765 359.073 474.593 342.896 474.942 331.401L476.328 252.256C476.489 242.86 484.172 235.354 493.531 235.354C493.64 235.354 493.744 235.354 493.843 235.354C503.349 235.516 510.922 243.36 510.744 252.865L509.385 330.578C514.656 336.49 540.5 347.37 582.885 348.615C625.073 350.104 651.604 340.62 657.302 335.011L658.651 257.688C658.823 248.167 667.442 240.422 676.161 240.771C685.672 240.948 693.239 248.792 693.067 258.287L691.677 337.651C690.729 369.49 641.474 383.157 590.442 383.157Z" fill="#00788C"/>
<path d="M324.75 553.188V643.542H359.208V669.667H295V553.188H324.75Z" fill="#00788C"/>
<path d="M463.869 582.146L439.015 669.667H419.327L394.14 581.375L395.098 669.667H367.702V553.188H405.952L429.098 629.854H429.41L452.223 553.188H490.64V669.667H463.244L464.181 582.479L463.869 582.146Z" fill="#00788C"/>
<path d="M773.313 754.064H88.8385C79.3333 754.064 71.625 746.356 71.625 736.851V285.486C71.625 275.981 79.3333 268.272 88.8385 268.272H255.359C264.865 268.272 272.573 275.981 272.573 285.486C272.573 295.007 264.865 302.7 255.359 302.7H106.052V719.647H756.099V549.231C756.099 539.71 763.807 532.017 773.313 532.017C782.807 532.017 790.516 539.71 790.516 549.231V736.851C790.516 746.356 782.807 754.064 773.313 754.064Z" fill="#00788C"/>
<mask id="mask0_1290_1397" style="mask-type:luminance" maskUnits="userSpaceOnUse" x="0" y="718" width="862" height="110">
<path d="M0.333008 718.751H861.666V827.902H0.333008V718.751Z" fill="white"/>
</mask>
<g mask="url(#mask0_1290_1397)">
<path d="M104.516 793.688H757.672L800.307 754.084H61.8802L104.516 793.688ZM764.432 828.1H97.7604C93.4115 828.1 89.2292 826.465 86.0417 823.506L6.35415 749.491C1.17186 744.678 -0.541679 737.183 2.05728 730.6C4.64582 724.006 10.9896 719.673 18.0729 719.673H844.12C851.203 719.673 857.547 724.006 860.135 730.6C862.729 737.183 861.021 744.678 855.833 749.491L776.151 823.506C772.964 826.465 768.781 828.1 764.432 828.1Z" fill="#00788C"/>
</g>
<path d="M419.63 431.059C423.865 431.059 427.974 432.632 431.156 435.502C444.198 447.247 458.167 457.267 472.693 465.247C508.745 485.236 549.094 495.476 589.755 493.856C671.141 491.804 746.005 446.45 785.219 375.517C785.219 375.507 785.219 375.507 785.219 375.507C846.578 264.611 806.307 124.439 695.453 63.0278C662.261 44.7049 626.432 35.0747 589.005 34.4601C503.011 32.6632 424.464 77.882 382.974 152.783C381.026 156.372 379.031 160.08 377.167 163.965C349.224 221.627 346.698 288.788 370.224 348.273C372.422 353.846 371.557 360.153 367.964 364.95L303.927 450.267L416.781 431.293C417.729 431.142 418.677 431.059 419.63 431.059ZM582.875 528.392C538.875 528.392 495.167 517.038 456.068 495.377C441.615 487.434 427.636 477.762 414.458 466.596L267.188 491.346C260.219 492.403 253.287 489.33 249.636 483.325C245.979 477.314 246.349 469.684 250.573 464.049L334.797 351.783C311.485 285.674 315.485 212.335 346.162 149.002C348.235 144.689 350.511 140.471 352.797 136.247C400.552 49.9861 491.057 -1.49304 589.682 0.0330061C632.693 0.756963 673.917 11.8143 712.104 32.8872C839.573 103.517 885.88 264.674 815.339 392.168C770.24 473.731 684.172 525.898 590.729 528.267C588.11 528.33 585.495 528.392 582.875 528.392Z" fill="#00788C"/>
<path d="M481.162 226.377L584.162 272.918L689.745 232.621L586.87 181.892L481.162 226.377ZM583.599 308.762C581.188 308.762 578.766 308.262 576.516 307.236L431.047 241.502C424.813 238.679 420.839 232.444 420.917 225.611C421.016 218.757 425.152 212.621 431.459 209.96L580.761 147.127C585.36 145.205 590.568 145.34 595.053 147.564L740.349 219.194C746.48 222.215 750.24 228.585 749.928 235.418C749.605 242.267 745.256 248.246 738.875 250.699L589.745 307.637C587.756 308.397 585.683 308.762 583.599 308.762Z" fill="#00788C"/>
<path d="M543.656 575.272C540.822 575.272 538.406 576.168 536.406 577.96C534.416 579.741 533.426 581.887 533.426 584.397C533.426 587.663 534.786 590.293 537.51 592.293C540.244 594.283 545.229 596.845 552.468 599.98C560.968 603.663 567.52 607.23 572.135 610.689C576.76 614.147 579.989 617.824 581.822 621.71C583.656 625.585 584.572 630.204 584.572 635.564C584.572 646.788 580.952 655.553 573.718 661.855C566.479 668.147 556.562 671.293 543.968 671.293C531.062 671.293 520.833 667.991 513.281 661.376C505.723 654.767 501.947 645.324 501.947 633.043V630.522H531.531C531.64 635.355 532.791 639.22 534.989 642.105C537.197 644.98 540.14 646.418 543.822 646.418C546.864 646.418 549.479 645.345 551.676 643.189C553.885 641.038 554.989 638.392 554.989 635.251C554.989 631.574 553.229 628.553 549.718 626.189C546.202 623.829 541.187 621.392 534.676 618.876C534.26 618.668 533.76 618.491 533.176 618.335C532.604 618.168 532.057 617.934 531.531 617.626C521.989 613.741 514.989 609.168 510.531 603.918C506.072 598.668 503.843 592.272 503.843 584.73C503.843 578.329 505.702 572.501 509.426 567.251C513.145 562.001 518.124 557.887 524.364 554.897C530.614 551.913 537.307 550.418 544.447 550.418C551.89 550.418 558.76 552.043 565.051 555.293C571.354 558.543 575.999 562.663 578.989 567.647C581.973 572.637 583.52 578.954 583.635 586.605H554.197C553.572 582.522 552.416 579.616 550.739 577.876C549.057 576.142 546.697 575.272 543.656 575.272Z" fill="#00788C"/>
</svg>
