<svg xmlns="http://www.w3.org/2000/svg" xmlns:xlink="http://www.w3.org/1999/xlink" width="1080" zoomAndPan="magnify" viewBox="0 0 810 809.999993" height="1080" preserveAspectRatio="xMidYMid meet" version="1.0"><defs><g/><clipPath id="a970c4de73"><path d="M 82 634 L 728 634 L 728 715.863281 L 82 715.863281 Z M 82 634 " clip-rule="nonzero"/></clipPath></defs><rect x="-81" width="972" fill="#ffffff" y="-80.999999" height="971.999992" fill-opacity="1"/><rect x="-81" width="972" fill="#ffffff" y="-80.999999" height="971.999992" fill-opacity="1"/><path fill="#00788c" d="M 661.734375 660.484375 L 148.378906 660.484375 C 141.25 660.484375 135.46875 654.703125 135.46875 647.574219 L 135.46875 309.050781 C 135.46875 301.921875 141.25 296.140625 148.378906 296.140625 L 273.269531 296.140625 C 280.398438 296.140625 286.179688 301.921875 286.179688 309.050781 C 286.179688 316.191406 280.398438 321.960938 273.269531 321.960938 L 161.289062 321.960938 L 161.289062 634.671875 L 648.824219 634.671875 L 648.824219 506.859375 C 648.824219 499.71875 654.605469 493.949219 661.734375 493.949219 C 668.855469 493.949219 674.636719 499.71875 674.636719 506.859375 L 674.636719 647.574219 C 674.636719 654.703125 668.855469 660.484375 661.734375 660.484375 " fill-opacity="1" fill-rule="nonzero"/><g clip-path="url(#a970c4de73)"><path fill="#00788c" d="M 160.136719 690.203125 L 650.003906 690.203125 L 681.980469 660.5 L 128.160156 660.5 Z M 655.074219 716.011719 L 155.070312 716.011719 C 151.808594 716.011719 148.671875 714.785156 146.28125 712.566406 L 86.515625 657.054688 C 82.628906 653.445312 81.34375 647.824219 83.292969 642.886719 C 85.234375 637.941406 89.992188 634.691406 95.304688 634.691406 L 714.839844 634.691406 C 720.152344 634.691406 724.910156 637.941406 726.851562 642.886719 C 728.796875 647.824219 727.515625 653.445312 723.625 657.054688 L 663.863281 712.566406 C 661.472656 714.785156 658.335938 716.011719 655.074219 716.011719 " fill-opacity="1" fill-rule="nonzero"/></g><path fill="#00788c" d="M 396.472656 418.230469 C 399.648438 418.230469 402.730469 419.410156 405.117188 421.5625 C 414.898438 430.371094 425.375 437.886719 436.269531 443.871094 C 463.308594 458.863281 493.570312 466.542969 524.066406 465.328125 C 585.105469 463.789062 641.253906 429.773438 670.664062 376.574219 C 670.664062 376.566406 670.664062 376.566406 670.664062 376.566406 C 716.683594 293.394531 686.480469 188.265625 603.339844 142.207031 C 578.445312 128.464844 551.574219 121.242188 523.503906 120.78125 C 459.007812 119.433594 400.097656 153.347656 368.980469 209.523438 C 367.519531 212.214844 366.023438 214.996094 364.625 217.910156 C 343.667969 261.15625 341.773438 311.527344 359.417969 356.140625 C 361.066406 360.320312 360.417969 365.050781 357.722656 368.648438 L 309.695312 432.636719 L 394.335938 418.40625 C 395.046875 418.292969 395.757812 418.230469 396.472656 418.230469 Z M 518.90625 491.230469 C 485.90625 491.230469 453.125 482.714844 423.800781 466.46875 C 412.960938 460.511719 402.476562 453.257812 392.59375 444.882812 L 282.140625 463.445312 C 276.914062 464.238281 271.714844 461.933594 268.976562 457.429688 C 266.234375 452.921875 266.511719 447.199219 269.679688 442.972656 L 332.847656 358.773438 C 315.363281 309.191406 318.363281 254.1875 341.371094 206.6875 C 342.925781 203.453125 344.632812 200.289062 346.347656 197.121094 C 382.164062 132.425781 450.042969 93.816406 524.011719 94.960938 C 556.269531 95.503906 587.1875 103.796875 615.828125 119.601562 C 711.429688 172.574219 746.160156 293.441406 693.253906 389.0625 C 659.429688 450.234375 594.878906 489.359375 524.796875 491.136719 C 522.832031 491.183594 520.871094 491.230469 518.90625 491.230469 " fill-opacity="1" fill-rule="nonzero"/><path fill="#00788c" d="M 463.769531 343.566406 L 463.769531 343.660156 C 463.769531 343.625 463.769531 343.605469 463.769531 343.566406 Z M 524.582031 381.867188 C 522.4375 381.867188 520.292969 381.839844 518.136719 381.785156 C 498.5 381.183594 479.929688 377.953125 465.847656 372.640625 C 442.324219 363.804688 437.695312 351.671875 437.957031 343.050781 L 438.996094 283.691406 C 439.117188 276.644531 444.878906 271.015625 451.898438 271.015625 C 451.980469 271.015625 452.058594 271.015625 452.132812 271.015625 C 459.261719 271.136719 464.941406 277.019531 464.808594 284.148438 L 463.789062 342.433594 C 467.742188 346.867188 487.125 355.027344 518.914062 355.960938 C 550.554688 357.078125 570.453125 349.964844 574.726562 345.757812 L 575.738281 287.765625 C 575.867188 280.625 582.332031 274.816406 588.871094 275.078125 C 596.003906 275.210938 601.679688 281.09375 601.550781 288.214844 L 600.507812 347.738281 C 599.796875 371.617188 562.855469 381.867188 524.582031 381.867188 " fill-opacity="1" fill-rule="nonzero"/><path fill="#00788c" d="M 442.621094 264.71875 L 519.871094 299.625 L 599.058594 269.402344 L 521.902344 231.355469 Z M 519.449219 326.507812 C 517.640625 326.507812 515.824219 326.132812 514.136719 325.363281 L 405.035156 276.0625 C 400.359375 273.945312 397.378906 269.269531 397.4375 264.144531 C 397.511719 259.003906 400.613281 254.402344 405.34375 252.40625 L 517.320312 205.28125 C 520.769531 203.839844 524.675781 203.941406 528.039062 205.609375 L 637.011719 259.332031 C 641.609375 261.597656 644.429688 266.375 644.195312 271.5 C 643.953125 276.636719 640.691406 281.121094 635.90625 282.960938 L 524.058594 325.664062 C 522.566406 326.234375 521.011719 326.507812 519.449219 326.507812 " fill-opacity="1" fill-rule="nonzero"/><g fill="#000000" fill-opacity="1"><g transform="translate(175.869545, 596.188907)"><g><path d="M 56.078125 -87.359375 L 56.078125 -79.453125 L 17 -79.453125 L 17 -48.046875 L 54.78125 -48.046875 L 54.78125 -40.140625 L 17 -40.140625 L 17 -7.90625 L 56.078125 -7.90625 L 56.078125 0 L 8.265625 0 L 8.265625 -87.359375 Z M 56.078125 -87.359375 "/></g></g></g><g fill="#000000" fill-opacity="1"><g transform="translate(236.773126, 596.188907)"><g><path d="M 9.6875 -64.578125 L 32.46875 -10.265625 L 55.59375 -64.578125 L 64.453125 -64.578125 L 37.1875 0 L 28.09375 0 L 0.828125 -64.578125 Z M 9.6875 -64.578125 "/></g></g></g><g fill="#000000" fill-opacity="1"><g transform="translate(299.801263, 596.188907)"><g><path d="M 38.015625 -5.90625 C 43.128906 -5.90625 47.828125 -7.28125 52.109375 -10.03125 C 56.398438 -12.789062 59.410156 -16.488281 61.140625 -21.125 L 69.890625 -21.125 C 67.441406 -14.28125 63.285156 -8.789062 57.421875 -4.65625 C 51.566406 -0.53125 45.132812 1.53125 38.125 1.53125 C 32.070312 1.53125 26.46875 0.0351562 21.3125 -2.953125 C 16.15625 -5.941406 12.0625 -10.03125 9.03125 -15.21875 C 6 -20.414062 4.484375 -26.085938 4.484375 -32.234375 C 4.484375 -38.367188 6.015625 -44.03125 9.078125 -49.21875 C 12.148438 -54.414062 16.265625 -58.546875 21.421875 -61.609375 C 26.578125 -64.679688 32.109375 -66.21875 38.015625 -66.21875 C 44.304688 -66.21875 50.03125 -64.601562 55.1875 -61.375 C 60.34375 -58.15625 64.414062 -53.890625 67.40625 -48.578125 C 70.394531 -43.265625 71.890625 -37.65625 71.890625 -31.75 L 71.765625 -29.28125 L 12.984375 -29.28125 C 13.222656 -25.101562 14.539062 -21.222656 16.9375 -17.640625 C 19.34375 -14.066406 22.429688 -11.21875 26.203125 -9.09375 C 29.984375 -6.96875 33.921875 -5.90625 38.015625 -5.90625 Z M 38.015625 -58.78125 C 33.992188 -58.78125 30.210938 -57.851562 26.671875 -56 C 23.128906 -54.15625 20.140625 -51.5625 17.703125 -48.21875 C 15.265625 -44.875 13.691406 -41.039062 12.984375 -36.71875 L 63.390625 -36.71875 C 62.210938 -43.25 59.28125 -48.554688 54.59375 -52.640625 C 49.914062 -56.734375 44.390625 -58.78125 38.015625 -58.78125 Z M 38.015625 -58.78125 "/></g></g></g><g fill="#000000" fill-opacity="1"><g transform="translate(374.160345, 596.188907)"><g><path d="M 15.9375 -64.578125 L 15.9375 -55.25 L 16.171875 -55.25 C 17.671875 -58.707031 19.816406 -61.320312 22.609375 -63.09375 C 25.398438 -64.863281 29.316406 -65.90625 34.359375 -66.21875 L 34.359375 -57.484375 L 34.234375 -57.484375 C 28.410156 -56.929688 23.90625 -54.90625 20.71875 -51.40625 C 17.53125 -47.90625 15.9375 -43.476562 15.9375 -38.125 L 15.9375 0 L 7.671875 0 L 7.671875 -64.578125 Z M 15.9375 -64.578125 "/></g></g></g><g fill="#00788c" fill-opacity="1"><g transform="translate(407.336454, 596.188907)"><g><path d="M 30.8125 -87.359375 L 30.8125 -19.59375 L 56.65625 -19.59375 L 56.65625 0 L 8.5 0 L 8.5 -87.359375 Z M 30.8125 -87.359375 "/></g></g></g><g fill="#00788c" fill-opacity="1"><g transform="translate(462.456524, 596.188907)"><g><path d="M 80.03125 -65.640625 L 61.390625 0 L 46.625 0 L 27.734375 -66.21875 L 28.453125 0 L 7.90625 0 L 7.90625 -87.359375 L 36.59375 -87.359375 L 53.953125 -29.859375 L 54.1875 -29.859375 L 71.296875 -87.359375 L 100.109375 -87.359375 L 100.109375 0 L 79.5625 0 L 80.265625 -65.390625 Z M 80.03125 -65.640625 "/></g></g></g><g fill="#00788c" fill-opacity="1"><g transform="translate(568.093787, 596.188907)"><g><path d="M 34.234375 -70.359375 C 32.109375 -70.359375 30.296875 -69.6875 28.796875 -68.34375 C 27.304688 -67.007812 26.5625 -65.398438 26.5625 -63.515625 C 26.5625 -61.066406 27.582031 -59.09375 29.625 -57.59375 C 31.675781 -56.101562 35.414062 -54.179688 40.84375 -51.828125 C 47.21875 -49.066406 52.132812 -46.390625 55.59375 -43.796875 C 59.0625 -41.203125 61.484375 -38.445312 62.859375 -35.53125 C 64.234375 -32.625 64.921875 -29.160156 64.921875 -25.140625 C 64.921875 -16.722656 62.207031 -10.148438 56.78125 -5.421875 C 51.351562 -0.703125 43.914062 1.65625 34.46875 1.65625 C 24.789062 1.65625 17.117188 -0.820312 11.453125 -5.78125 C 5.785156 -10.738281 2.953125 -17.820312 2.953125 -27.03125 L 2.953125 -28.921875 L 25.140625 -28.921875 C 25.222656 -25.296875 26.085938 -22.398438 27.734375 -20.234375 C 29.390625 -18.078125 31.597656 -17 34.359375 -17 C 36.640625 -17 38.601562 -17.804688 40.25 -19.421875 C 41.90625 -21.035156 42.734375 -23.019531 42.734375 -25.375 C 42.734375 -28.132812 41.414062 -30.398438 38.78125 -32.171875 C 36.144531 -33.941406 32.382812 -35.769531 27.5 -37.65625 C 27.1875 -37.8125 26.8125 -37.945312 26.375 -38.0625 C 25.945312 -38.1875 25.535156 -38.363281 25.140625 -38.59375 C 17.984375 -41.507812 12.734375 -44.9375 9.390625 -48.875 C 6.046875 -52.8125 4.375 -57.609375 4.375 -63.265625 C 4.375 -68.066406 5.769531 -72.4375 8.5625 -76.375 C 11.351562 -80.3125 15.085938 -83.398438 19.765625 -85.640625 C 24.453125 -87.878906 29.472656 -89 34.828125 -89 C 40.410156 -89 45.5625 -87.78125 50.28125 -85.34375 C 55.007812 -82.90625 58.492188 -79.816406 60.734375 -76.078125 C 62.972656 -72.335938 64.132812 -67.597656 64.21875 -61.859375 L 42.140625 -61.859375 C 41.671875 -64.921875 40.804688 -67.101562 39.546875 -68.40625 C 38.285156 -69.707031 36.515625 -70.359375 34.234375 -70.359375 Z M 34.234375 -70.359375 "/></g></g></g></svg>